<?xml version="1.0" standalone="no"?>
<!DOCTYPE svg PUBLIC "-//W3C//DTD SVG 20010904//EN"
 "http://www.w3.org/TR/2001/REC-SVG-20010904/DTD/svg10.dtd">
<svg version="1.0" xmlns="http://www.w3.org/2000/svg"
 width="132.000000pt" height="132.000000pt" viewBox="0 0 132.000000 132.000000"
 preserveAspectRatio="xMidYMid meet">
<metadata>
Created by potrace 1.14, written by Peter Selinger 2001-2017
</metadata>
<g transform="translate(0.000000,132.000000) scale(0.100000,-0.100000)"
fill="#000000" stroke="none">
<path d="M848 1315 c-2 -2 -30 -6 -63 -9 -52 -6 -96 -11 -255 -31 -19 -3 -62
-7 -95 -10 -96 -9 -122 -21 -157 -73 -17 -26 -35 -49 -39 -52 -9 -7 -5 -112 5
-129 5 -8 4 -16 -4 -21 -9 -5 -8 -9 3 -13 8 -3 14 -16 13 -29 -1 -13 1 -27 5
-33 3 -5 9 -29 13 -52 5 -37 4 -42 -11 -37 -11 3 -9 0 4 -7 14 -8 21 -22 23
-45 3 -72 4 -79 14 -86 6 -4 4 -13 -5 -24 -9 -11 -9 -15 -2 -10 8 4 13 1 13
-8 0 -22 1 -28 11 -53 5 -14 5 -23 -1 -23 -6 0 -10 -5 -10 -11 0 -5 5 -7 10
-4 14 9 12 -8 -2 -24 -9 -10 -10 -12 -1 -7 8 4 15 -6 20 -31 4 -21 6 -42 5
-46 -1 -5 2 -6 7 -3 5 4 21 -8 36 -26 15 -18 24 -27 20 -21 -8 17 47 17 64 1
10 -11 11 -10 6 3 -3 9 -1 16 7 16 7 0 31 3 53 7 97 15 119 15 127 3 5 -8 8
-7 8 6 0 9 4 17 10 17 5 0 9 -3 9 -7 -1 -5 -1 -97 0 -205 l1 -198 220 0 220 0
0 600 c0 364 -4 600 -9 600 -15 0 -28 -46 -33 -113 -1 -21 -7 -41 -12 -44 -6
-4 -8 -3 -5 1 4 4 -4 50 -16 104 -29 122 -41 134 -137 131 -37 -1 -69 -3 -70
-4z"/>
<path d="M355 423 c3 -3 0 -11 -5 -18 -7 -8 -5 -12 4 -12 14 0 16 22 3 32 -4
3 -5 2 -2 -2z"/>
<path d="M593 407 c0 -8 6 -14 13 -14 7 0 10 6 7 14 -3 7 -8 13 -12 13 -4 0
-8 -6 -8 -13z"/>
<path d="M497 396 c-4 -10 -1 -13 8 -9 8 3 12 9 9 14 -7 12 -11 11 -17 -5z"/>
<path d="M530 398 c0 -6 3 -8 7 -5 3 4 16 -1 27 -10 21 -18 21 -18 2 5 -21 24
-36 29 -36 10z"/>
<path d="M452 378 c2 -7 -3 -12 -9 -10 -7 1 -13 -2 -13 -8 0 -14 16 -12 29 4
8 10 9 16 1 21 -6 4 -9 1 -8 -7z"/>
<path d="M655 380 c3 -5 8 -10 11 -10 2 0 4 5 4 10 0 6 -5 10 -11 10 -5 0 -7
-4 -4 -10z"/>
<path d="M475 361 c-3 -5 -2 -12 3 -15 5 -3 9 1 9 9 0 17 -3 19 -12 6z"/>
</g>
</svg>
